<svg xmlns="http://www.w3.org/2000/svg" xmlns:xlink="http://www.w3.org/1999/xlink" xmlns:inkscape="http://www.inkscape.org/namespaces/inkscape" version="1.1" width="1275.6633" height="722.9845" viewBox="0 0 1275.6633 722.9845">
<defs>
<clipPath id="clip_1">
<path transform="matrix(1,0,0,-1,-370.31513,2198.6868)" d="M370.31513 1475.7023H1645.9785V2198.6868H370.31513Z" clip-rule="evenodd"/>
</clipPath>
<clipPath id="clip_2">
<path transform="matrix(1,0,0,-1,-370.31513,2198.6868)" d="M0 0H1984.25V2834.65H0Z"/>
</clipPath>
<clipPath id="clip_3">
<path transform="matrix(1,0,0,-1,-370.31513,2198.6868)" d="M0 2834.65H1984.25V0H0Z"/>
</clipPath>
</defs>
<g clip-path="url(#clip_1)">
<g inkscape:groupmode="layer" inkscape:label="Layer 1">
<g clip-path="url(#clip_2)">
<path transform="matrix(1,0,0,-1,1265.6633,369.51734)" stroke-width="16" stroke-linecap="butt" stroke-miterlimit="10" stroke-linejoin="miter" fill="none" stroke="#ffffff" d="M0 0H-263.324C-274.721-.122-276.295-.609-287.682-.609-315.795-101.387-337.75-238.76-365.85-338.549"/>
<path transform="matrix(1,0,0,-1,409.347,371.8318)" stroke-width="16" stroke-linecap="butt" stroke-miterlimit="10" stroke-linejoin="miter" fill="none" stroke="#ffffff" d="M0 0C162.959 .203 90.795-.844 253.656-.844 257.674-.844 260.713 5.175 261.686 8.049 277.75 55.471 302.611 148.026 304.438 152.757L366.004-65.716 430.203 267.963 494.398-304.231"/>
<path transform="matrix(1,0,0,-1,409.347,371.8318)" stroke-width="16" stroke-linecap="butt" stroke-miterlimit="10" stroke-linejoin="miter" fill="none" stroke="#ffffff" d="M0 0C162.959 .203 90.795-.844 253.656-.844 257.674-.844 260.713 5.175 261.686 8.049 277.75 55.471 302.611 148.026 304.438 152.757L366.004-65.716 430.203 267.963 494.398-304.231"/>
<path transform="matrix(1,0,0,-1,785.5052,700.19998)" d="M0 0C395.848 117.576 412.99 423.24 412.99 391.301L416.809 429.063C416.809 573.403 331.203 684.226 195.592 690.2L198.445 689.643C93.113 689.347 37.174 624.488 2.189 583.231H7.432C-28.621 624.488-86.266 689.347-194.805 689.643L-194.562 690.2C-211.495 689.477-227.672 687.261-243.014 683.675L-245.312 207.609-245.46 176.915-246.407 158.114-250.771 138.487-256.012 118.859C-195.222 65.934-105.994 33.771 6.984 0" fill="#ed1c24"/>
<path transform="matrix(1,0,0,-1,785.5052,700.19998)" stroke-width="6" stroke-linecap="butt" stroke-miterlimit="10" stroke-linejoin="miter" fill="none" stroke="#ed1c24" d="M0 0C395.848 117.576 412.99 423.24 412.99 391.301L416.809 429.063C416.809 573.403 331.203 684.226 195.592 690.2L198.445 689.643C93.113 689.347 37.174 624.488 2.189 583.231H7.432C-28.621 624.488-86.266 689.347-194.805 689.643L-194.562 690.2C-211.495 689.477-227.672 687.261-243.014 683.675L-245.312 207.609-245.46 176.915-246.407 158.114-250.771 138.487-256.012 118.859C-195.222 65.934-105.994 33.771 6.984 0"/>
<path transform="matrix(1,0,0,-1,865.75326,708.06619)" stroke-width="16" stroke-linecap="butt" stroke-miterlimit="10" stroke-linejoin="miter" fill="none" stroke="#ffffff" d="M0 0C28.098 99.789 50.053 237.162 78.166 337.939 89.553 337.939 91.129 338.427 102.523 338.549H365.848"/>
<path transform="matrix(1,0,0,-1,377.90608,371.8318)" stroke-width="16" stroke-linecap="butt" stroke-miterlimit="10" stroke-linejoin="miter" fill="none" stroke="#ffffff" d="M0 0C162.958 .203 90.793-.844 253.655-.844 257.673-.844 260.712 5.175 261.685 8.049 277.748 55.471 302.609 148.026 304.437 152.757L366.003-65.716 430.205 267.963 494.396-304.231"/>
</g>
<g clip-path="url(#clip_3)">
<path transform="matrix(1,0,0,-1,456.766,649.9065)" d="M0 0C-48.219-42.063-131.906-63.078-251.063-63.078-293.156-63.078-330.734-61.625-363.797-58.734-396.859-55.813-424.516-52.047-446.766-47.406V55.859C-438.953 54.313-417.766 52.766-383.188 51.234-348.625 49.688-316.906 48.922-288.031 48.922-223.109 48.922-180.422 62.984-159.969 91.141-147.953 107.719-141.938 137.797-141.938 181.375V638.922H56.063V148.156C56.063 82.188 37.375 32.797 0 0" fill="#194aa0"/>
<path transform="matrix(1,0,0,-1,79.79819,767.4055)" d="M0 0-14.172-116.631H-52.712C-54.811-102.382-57.264-83.604-60.073-60.293-61.036-70.549-62.365-80.891-64.063-91.319L-67.961-116.631H-106.589L-121.641 0H-91.037C-90.802-3.046-88.215-25.311-83.276-66.797-82.886-62.529-80.228-40.262-75.3 0H-45.901L-38.716-66.797C-37.579-47.292-34.864-25.027-30.574 0Z" fill="#e9472e"/>
<path transform="matrix(1,0,0,-1,79.79819,767.4055)" stroke-width="1" stroke-linecap="butt" stroke-miterlimit="4" stroke-linejoin="miter" fill="none" stroke="#d8642a" d="M0 0-14.172-116.631H-52.712C-54.811-102.382-57.264-83.604-60.073-60.293-61.036-70.549-62.365-80.891-64.063-91.319L-67.961-116.631H-106.589L-121.641 0H-91.037C-90.802-3.046-88.215-25.311-83.276-66.797-82.886-62.529-80.228-40.262-75.3 0H-45.901L-38.716-66.797C-37.579-47.292-34.864-25.027-30.574 0H0Z"/>
<path transform="matrix(1,0,0,-1,200.2962,767.4055)" d="M0 0-14.172-116.631H-52.712C-54.811-102.382-57.264-83.604-60.073-60.293-61.036-70.549-62.365-80.891-64.063-91.319L-67.961-116.631H-106.589L-121.641 0H-91.037C-90.802-3.046-88.215-25.311-83.276-66.797-82.886-62.529-80.228-40.262-75.3 0H-45.901L-38.716-66.797C-37.579-47.292-34.864-25.027-30.574 0Z" fill="#e9472e"/>
<path transform="matrix(1,0,0,-1,200.2962,767.4055)" stroke-width="1" stroke-linecap="butt" stroke-miterlimit="4" stroke-linejoin="miter" fill="none" stroke="#d8642a" d="M0 0-14.172-116.631H-52.712C-54.811-102.382-57.264-83.604-60.073-60.293-61.036-70.549-62.365-80.891-64.063-91.319L-67.961-116.631H-106.589L-121.641 0H-91.037C-90.802-3.046-88.215-25.311-83.276-66.797-82.886-62.529-80.228-40.262-75.3 0H-45.901L-38.716-66.797C-37.579-47.292-34.864-25.027-30.574 0H0Z"/>
<path transform="matrix(1,0,0,-1,320.79426,767.4055)" d="M0 0-14.172-116.631H-52.712C-54.811-102.382-57.264-83.604-60.073-60.293-61.036-70.549-62.365-80.891-64.063-91.319L-67.961-116.631H-106.589L-121.641 0H-91.037C-90.802-3.046-88.215-25.311-83.276-66.797-82.886-62.529-80.228-40.262-75.3 0H-45.901L-38.716-66.797C-37.579-47.292-34.864-25.027-30.574 0Z" fill="#e9472e"/>
<path transform="matrix(1,0,0,-1,320.79426,767.4055)" stroke-width="1" stroke-linecap="butt" stroke-miterlimit="4" stroke-linejoin="miter" fill="none" stroke="#d8642a" d="M0 0-14.172-116.631H-52.712C-54.811-102.382-57.264-83.604-60.073-60.293-61.036-70.549-62.365-80.891-64.063-91.319L-67.961-116.631H-106.589L-121.641 0H-91.037C-90.802-3.046-88.215-25.311-83.276-66.797-82.886-62.529-80.228-40.262-75.3 0H-45.901L-38.716-66.797C-37.579-47.292-34.864-25.027-30.574 0H0Z"/>
<path transform="matrix(1,0,0,-1,-370.31513,2198.6868)" d="M720.465 1314.65H693.658V1343.654H720.465Z" fill="#e9472e"/>
<path transform="matrix(1,0,0,-1,-370.31513,2198.6868)" stroke-width="1" stroke-linecap="butt" stroke-miterlimit="4" stroke-linejoin="miter" fill="none" stroke="#d8642a" d="M720.465 1314.65H693.658V1343.654H720.465Z"/>
<path transform="matrix(1,0,0,-1,406.04817,741.74148)" d="M0 0V-95.098C0-109.336-.147-118.491-.441-122.563-.735-126.637-2.074-130.313-4.455-133.594-6.837-136.876-10.063-139.146-14.132-140.405-18.203-141.666-24.336-142.295-32.532-142.295H-51.064V-117.422C-48.838-117.598-47.228-117.686-46.23-117.686-43.594-117.686-41.515-117.041-39.99-115.752-38.467-114.464-37.588-112.882-37.354-111.006-37.12-109.131-37.002-105.499-37.002-100.107V0Z" fill="#e9472e"/>
<path transform="matrix(1,0,0,-1,406.04817,741.74148)" stroke-width="1" stroke-linecap="butt" stroke-miterlimit="4" stroke-linejoin="miter" fill="none" stroke="#d8642a" d="M0 0V-95.098C0-109.336-.147-118.491-.441-122.563-.735-126.637-2.074-130.313-4.455-133.594-6.837-136.876-10.063-139.146-14.132-140.405-18.203-141.666-24.336-142.295-32.532-142.295H-51.064V-117.422C-48.838-117.598-47.228-117.686-46.23-117.686-43.594-117.686-41.515-117.041-39.99-115.752-38.467-114.464-37.588-112.882-37.354-111.006-37.12-109.131-37.002-105.499-37.002-100.107V0H0Z"/>
<path transform="matrix(1,0,0,-1,-370.31513,2198.6868)" d="M826.197 1314.65H789.63406V1431.281H826.197ZM826.197 1438.4H789.63406V1456.9451H826.197Z" fill="#e9472e"/>
<path transform="matrix(1,0,0,-1,-370.31513,2198.6868)" stroke-width="1" stroke-linecap="butt" stroke-miterlimit="4" stroke-linejoin="miter" fill="none" stroke="#d8642a" d="M826.197 1314.65H789.63406V1431.281H826.197ZM826.197 1438.4H789.63406V1456.9451H826.197Z"/>
<path transform="matrix(1,0,0,-1,514.0326,833.2356)" d="M0 0C-1.873 16.117-3.752 36.038-5.636 59.766-9.405 32.518-11.773 12.596-12.737 0ZM19.611 91.494 40.771-50.801H2.955L.97-25.225H-12.266L-14.49-50.801H-52.745L-33.871 91.494Z" fill="#e9472e"/>
<path transform="matrix(1,0,0,-1,514.0326,833.2356)" stroke-width="1" stroke-linecap="butt" stroke-miterlimit="4" stroke-linejoin="miter" fill="none" stroke="#d8642a" d="M0 0C-1.873 16.117-3.752 36.038-5.636 59.766-9.405 32.518-11.773 12.596-12.737 0H0ZM19.611 91.494 40.771-50.801H2.955L.97-25.225H-12.266L-14.49-50.801H-52.745L-33.871 91.494H19.611Z"/>
<path transform="matrix(1,0,0,-1,614.7884,741.74148)" d="M0 0V-142.295H-35.508V-66.006C-35.508-54.99-35.771-48.37-36.299-46.143-36.826-43.916-38.276-42.231-40.649-41.089-43.022-39.946-48.311-39.375-56.514-39.375H-60.029V-22.786C-42.861-19.091-29.825-11.496-20.918 0Z" fill="#e9472e"/>
<path transform="matrix(1,0,0,-1,614.7884,741.74148)" stroke-width="1" stroke-linecap="butt" stroke-miterlimit="4" stroke-linejoin="miter" fill="none" stroke="#d8642a" d="M0 0V-142.295H-35.508V-66.006C-35.508-54.99-35.771-48.37-36.299-46.143-36.826-43.916-38.276-42.231-40.649-41.089-43.022-39.946-48.311-39.375-56.514-39.375H-60.029V-22.786C-42.861-19.091-29.825-11.496-20.918 0H0Z"/>
<path transform="matrix(1,0,0,-1,678.3333,823.9192)" d="M0 0C0 5.039-.558 8.495-1.67 10.371-2.783 12.246-4.601 13.184-7.119 13.184-9.58 13.184-11.382 12.289-12.524 10.503-13.667 8.715-14.238 5.215-14.238 0V-25.752C-14.238-32.022-13.697-36.123-12.612-38.057-11.528-39.99-9.727-40.957-7.207-40.957-5.684-40.957-4.102-40.21-2.461-38.716-.821-37.222 0-33.193 0-26.631ZM35.508 44.385H0C0 51.005-.074 55.18-.22 56.909-.366 58.637-1.069 60.087-2.329 61.26-3.59 62.431-5.304 63.018-7.471 63.018-9.287 63.018-10.781 62.46-11.953 61.348-13.126 60.234-13.799 58.799-13.975 57.041-14.15 55.283-14.238 51.737-14.238 46.406V23.73C-12.423 27.539-9.756 30.395-6.24 32.3-2.725 34.203 1.611 35.156 6.768 35.156 13.271 35.156 19.014 33.398 23.994 29.883 28.974 26.367 32.138 22.148 33.486 17.227 34.834 12.305 35.508 5.654 35.508-2.725V-14.063C35.508-24.024 35.126-31.436 34.365-36.299 33.604-41.163 31.566-45.659 28.257-49.79 24.946-53.921 20.404-57.129 14.634-59.414 8.862-61.699 2.139-62.842-5.537-62.842-15.088-62.842-22.91-61.523-29.004-58.887-35.099-56.25-39.801-52.457-43.11-47.505-46.421-42.554-48.354-37.354-48.911-31.904-49.469-26.455-49.746-15.879-49.746-.176V19.512C-49.746 36.444-49.497 47.769-48.999 53.481-48.502 59.194-46.465 64.6-42.891 69.697-39.317 74.795-34.439 78.618-28.257 81.167-22.075 83.716-14.941 84.99-6.855 84.99 3.105 84.99 11.279 83.378 17.666 80.156 24.052 76.933 28.622 72.392 31.377 66.533 34.131 60.673 35.508 53.291 35.508 44.385" fill="#e9472e"/>
<path transform="matrix(1,0,0,-1,678.3333,823.9192)" stroke-width="1" stroke-linecap="butt" stroke-miterlimit="4" stroke-linejoin="miter" fill="none" stroke="#d8642a" d="M0 0C0 5.039-.558 8.495-1.67 10.371-2.783 12.246-4.601 13.184-7.119 13.184-9.58 13.184-11.382 12.289-12.524 10.503-13.667 8.715-14.238 5.215-14.238 0V-25.752C-14.238-32.022-13.697-36.123-12.612-38.057-11.528-39.99-9.727-40.957-7.207-40.957-5.684-40.957-4.102-40.21-2.461-38.716-.821-37.222 0-33.193 0-26.631V0ZM35.508 44.385H0C0 51.005-.074 55.18-.22 56.909-.366 58.637-1.069 60.087-2.329 61.26-3.59 62.431-5.304 63.018-7.471 63.018-9.287 63.018-10.781 62.46-11.953 61.348-13.126 60.234-13.799 58.799-13.975 57.041-14.15 55.283-14.238 51.737-14.238 46.406V23.73C-12.423 27.539-9.756 30.395-6.24 32.3-2.725 34.203 1.611 35.156 6.768 35.156 13.271 35.156 19.014 33.398 23.994 29.883 28.974 26.367 32.138 22.148 33.486 17.227 34.834 12.305 35.508 5.654 35.508-2.725V-14.063C35.508-24.024 35.126-31.436 34.365-36.299 33.604-41.163 31.566-45.659 28.257-49.79 24.946-53.921 20.404-57.129 14.634-59.414 8.862-61.699 2.139-62.842-5.537-62.842-15.088-62.842-22.91-61.523-29.004-58.887-35.099-56.25-39.801-52.457-43.11-47.505-46.421-42.554-48.354-37.354-48.911-31.904-49.469-26.455-49.746-15.879-49.746-.176V19.512C-49.746 36.444-49.497 47.769-48.999 53.481-48.502 59.194-46.465 64.6-42.891 69.697-39.317 74.795-34.439 78.618-28.257 81.167-22.075 83.716-14.941 84.99-6.855 84.99 3.105 84.99 11.279 83.378 17.666 80.156 24.052 76.933 28.622 72.392 31.377 66.533 34.131 60.673 35.508 53.291 35.508 44.385Z"/>
<path transform="matrix(1,0,0,-1,775.804,823.9192)" d="M0 0C0 5.039-.558 8.495-1.67 10.371-2.783 12.246-4.601 13.184-7.119 13.184-9.58 13.184-11.382 12.289-12.524 10.503-13.667 8.715-14.238 5.215-14.238 0V-25.752C-14.238-32.022-13.697-36.123-12.612-38.057-11.528-39.99-9.727-40.957-7.207-40.957-5.684-40.957-4.102-40.21-2.461-38.716-.821-37.222 0-33.193 0-26.631ZM35.508 44.385H0C0 51.005-.074 55.18-.22 56.909-.366 58.637-1.069 60.087-2.329 61.26-3.59 62.431-5.304 63.018-7.471 63.018-9.287 63.018-10.781 62.46-11.953 61.348-13.126 60.234-13.799 58.799-13.975 57.041-14.15 55.283-14.238 51.737-14.238 46.406V23.73C-12.423 27.539-9.756 30.395-6.24 32.3-2.725 34.203 1.611 35.156 6.768 35.156 13.271 35.156 19.014 33.398 23.994 29.883 28.974 26.367 32.138 22.148 33.486 17.227 34.834 12.305 35.508 5.654 35.508-2.725V-14.063C35.508-24.024 35.126-31.436 34.365-36.299 33.604-41.163 31.566-45.659 28.257-49.79 24.946-53.921 20.404-57.129 14.634-59.414 8.862-61.699 2.139-62.842-5.537-62.842-15.088-62.842-22.91-61.523-29.004-58.887-35.099-56.25-39.801-52.457-43.11-47.505-46.421-42.554-48.354-37.354-48.911-31.904-49.469-26.455-49.746-15.879-49.746-.176V19.512C-49.746 36.444-49.497 47.769-48.999 53.481-48.502 59.194-46.465 64.6-42.891 69.697-39.317 74.795-34.439 78.618-28.257 81.167-22.075 83.716-14.941 84.99-6.855 84.99 3.105 84.99 11.279 83.378 17.666 80.156 24.052 76.933 28.622 72.392 31.377 66.533 34.131 60.673 35.508 53.291 35.508 44.385" fill="#e9472e"/>
<path transform="matrix(1,0,0,-1,775.804,823.9192)" stroke-width="1" stroke-linecap="butt" stroke-miterlimit="4" stroke-linejoin="miter" fill="none" stroke="#d8642a" d="M0 0C0 5.039-.558 8.495-1.67 10.371-2.783 12.246-4.601 13.184-7.119 13.184-9.58 13.184-11.382 12.289-12.524 10.503-13.667 8.715-14.238 5.215-14.238 0V-25.752C-14.238-32.022-13.697-36.123-12.612-38.057-11.528-39.99-9.727-40.957-7.207-40.957-5.684-40.957-4.102-40.21-2.461-38.716-.821-37.222 0-33.193 0-26.631V0ZM35.508 44.385H0C0 51.005-.074 55.18-.22 56.909-.366 58.637-1.069 60.087-2.329 61.26-3.59 62.431-5.304 63.018-7.471 63.018-9.287 63.018-10.781 62.46-11.953 61.348-13.126 60.234-13.799 58.799-13.975 57.041-14.15 55.283-14.238 51.737-14.238 46.406V23.73C-12.423 27.539-9.756 30.395-6.24 32.3-2.725 34.203 1.611 35.156 6.768 35.156 13.271 35.156 19.014 33.398 23.994 29.883 28.974 26.367 32.138 22.148 33.486 17.227 34.834 12.305 35.508 5.654 35.508-2.725V-14.063C35.508-24.024 35.126-31.436 34.365-36.299 33.604-41.163 31.566-45.659 28.257-49.79 24.946-53.921 20.404-57.129 14.634-59.414 8.862-61.699 2.139-62.842-5.537-62.842-15.088-62.842-22.91-61.523-29.004-58.887-35.099-56.25-39.801-52.457-43.11-47.505-46.421-42.554-48.354-37.354-48.911-31.904-49.469-26.455-49.746-15.879-49.746-.176V19.512C-49.746 36.444-49.497 47.769-48.999 53.481-48.502 59.194-46.465 64.6-42.891 69.697-39.317 74.795-34.439 78.618-28.257 81.167-22.075 83.716-14.941 84.99-6.855 84.99 3.105 84.99 11.279 83.378 17.666 80.156 24.052 76.933 28.622 72.392 31.377 66.533 34.131 60.673 35.508 53.291 35.508 44.385Z"/>
<path transform="matrix(1,0,0,-1,859.03646,801.85867)" d="M0 0C0-5.977 .776-9.668 2.329-11.074 3.881-12.48 5.479-13.184 7.119-13.184 9.58-13.184 11.382-12.291 12.524-10.503 13.667-8.717 14.238-5.216 14.238 0V25.752C14.238 32.021 13.696 36.123 12.612 38.057 11.527 39.99 9.726 40.957 7.207 40.957 5.683 40.957 4.101 40.21 2.461 38.716 .82 37.222 0 33.192 0 26.631ZM-35.508-44.385H0C0-51.007 .088-55.182 .264-56.909 .439-58.638 1.156-60.088 2.417-61.26 3.677-62.433 5.391-63.018 7.559-63.018 9.374-63.018 10.868-62.461 12.041-61.348 13.213-60.235 13.872-58.799 14.019-57.041 14.164-55.283 14.238-51.738 14.238-46.406V-23.73C12.48-27.54 9.844-30.396 6.328-32.3 2.813-34.205-1.553-35.156-6.768-35.156-13.271-35.156-19.015-33.398-23.994-29.883-28.975-26.367-32.139-22.148-33.486-17.227-34.835-12.305-35.508-5.655-35.508 2.725V14.063C-35.508 24.023-35.112 31.435-34.321 36.299-33.53 41.162-31.495 45.659-28.213 49.79-24.932 53.921-20.391 57.129-14.59 59.414-8.789 61.699-2.052 62.842 5.625 62.842 15.117 62.842 22.909 61.523 29.004 58.887 35.098 56.25 39.814 52.456 43.154 47.505 46.494 42.553 48.428 37.354 48.955 31.904 49.482 26.455 49.746 15.908 49.746 .264V-19.512C49.746-36.445 49.512-47.769 49.043-53.481 48.573-59.194 46.538-64.6 42.935-69.697 39.331-74.795 34.453-78.618 28.301-81.167 22.148-83.716 15.029-84.99 6.943-84.99-3.076-84.99-11.265-83.378-17.622-80.156-23.98-76.935-28.551-72.393-31.333-66.533-34.116-60.675-35.508-53.292-35.508-44.385" fill="#e9472e"/>
<path transform="matrix(1,0,0,-1,859.03646,801.85867)" stroke-width="1" stroke-linecap="butt" stroke-miterlimit="4" stroke-linejoin="miter" fill="none" stroke="#d8642a" d="M0 0C0-5.977 .776-9.668 2.329-11.074 3.881-12.48 5.479-13.184 7.119-13.184 9.58-13.184 11.382-12.291 12.524-10.503 13.667-8.717 14.238-5.216 14.238 0V25.752C14.238 32.021 13.696 36.123 12.612 38.057 11.527 39.99 9.726 40.957 7.207 40.957 5.683 40.957 4.101 40.21 2.461 38.716 .82 37.222 0 33.192 0 26.631V0ZM-35.508-44.385H0C0-51.007 .088-55.182 .264-56.909 .439-58.638 1.156-60.088 2.417-61.26 3.677-62.433 5.391-63.018 7.559-63.018 9.374-63.018 10.868-62.461 12.041-61.348 13.213-60.235 13.872-58.799 14.019-57.041 14.164-55.283 14.238-51.738 14.238-46.406V-23.73C12.48-27.54 9.844-30.396 6.328-32.3 2.813-34.205-1.553-35.156-6.768-35.156-13.271-35.156-19.015-33.398-23.994-29.883-28.975-26.367-32.139-22.148-33.486-17.227-34.835-12.305-35.508-5.655-35.508 2.725V14.063C-35.508 24.023-35.112 31.435-34.321 36.299-33.53 41.162-31.495 45.659-28.213 49.79-24.932 53.921-20.391 57.129-14.59 59.414-8.789 61.699-2.052 62.842 5.625 62.842 15.117 62.842 22.909 61.523 29.004 58.887 35.098 56.25 39.814 52.456 43.154 47.505 46.494 42.553 48.428 37.354 48.955 31.904 49.482 26.455 49.746 15.908 49.746 .264V-19.512C49.746-36.445 49.512-47.769 49.043-53.481 48.573-59.194 46.538-64.6 42.935-69.697 39.331-74.795 34.453-78.618 28.301-81.167 22.148-83.716 15.029-84.99 6.943-84.99-3.076-84.99-11.265-83.378-17.622-80.156-23.98-76.935-28.551-72.393-31.333-66.533-34.116-60.675-35.508-53.292-35.508-44.385Z"/>
<path transform="matrix(1,0,0,-1,-370.31513,2198.6868)" d="M1314.957 1314.65H1288.15V1343.654H1314.957Z" fill="#e9472e"/>
<path transform="matrix(1,0,0,-1,-370.31513,2198.6868)" stroke-width="1" stroke-linecap="butt" stroke-miterlimit="4" stroke-linejoin="miter" fill="none" stroke="#d8642a" d="M1314.957 1314.65H1288.15V1343.654H1314.957Z"/>
<path transform="matrix(1,0,0,-1,1032.7083,811.4387)" d="M0 0H-33.486V13.447C-33.486 18.135-33.868 21.313-34.629 22.983-35.391 24.653-36.797 25.488-38.848 25.488-40.899 25.488-42.275 24.755-42.979 23.291-43.682 21.826-44.033 18.545-44.033 13.447V-41.572C-44.033-45.733-43.506-48.854-42.451-50.933-41.396-53.013-39.845-54.053-37.793-54.053-35.391-54.053-33.765-52.969-32.915-50.801-32.066-48.634-31.641-44.531-31.641-38.496V-24.609H0C-.059-33.926-.396-40.913-1.011-45.571-1.626-50.229-3.59-55.006-6.899-59.897-10.21-64.79-14.532-68.481-19.863-70.972-25.195-73.462-31.787-74.707-39.639-74.707-49.658-74.707-57.599-72.993-63.457-69.565-69.316-66.138-73.463-61.334-75.894-55.151-78.325-48.97-79.541-40.196-79.541-28.828V4.307C-79.541 14.208-78.545 21.679-76.553 26.719-74.562 31.757-70.313 36.255-63.809 40.21-57.305 44.165-49.395 46.143-40.078 46.143-30.82 46.143-22.91 44.179-16.348 40.254-9.786 36.328-5.42 31.377-3.252 25.4-1.085 19.424 0 10.956 0 0" fill="#e9472e"/>
<path transform="matrix(1,0,0,-1,1032.7083,811.4387)" stroke-width="1" stroke-linecap="butt" stroke-miterlimit="4" stroke-linejoin="miter" fill="none" stroke="#d8642a" d="M0 0H-33.486V13.447C-33.486 18.135-33.868 21.313-34.629 22.983-35.391 24.653-36.797 25.488-38.848 25.488-40.899 25.488-42.275 24.755-42.979 23.291-43.682 21.826-44.033 18.545-44.033 13.447V-41.572C-44.033-45.733-43.506-48.854-42.451-50.933-41.396-53.013-39.845-54.053-37.793-54.053-35.391-54.053-33.765-52.969-32.915-50.801-32.066-48.634-31.641-44.531-31.641-38.496V-24.609H0C-.059-33.926-.396-40.913-1.011-45.571-1.626-50.229-3.59-55.006-6.899-59.897-10.21-64.79-14.532-68.481-19.863-70.972-25.195-73.462-31.787-74.707-39.639-74.707-49.658-74.707-57.599-72.993-63.457-69.565-69.316-66.138-73.463-61.334-75.894-55.151-78.325-48.97-79.541-40.196-79.541-28.828V4.307C-79.541 14.208-78.545 21.679-76.553 26.719-74.562 31.757-70.313 36.255-63.809 40.21-57.305 44.165-49.395 46.143-40.078 46.143-30.82 46.143-22.91 44.179-16.348 40.254-9.786 36.328-5.42 31.377-3.252 25.4-1.085 19.424 0 10.956 0 0Z"/>
<path transform="matrix(1,0,0,-1,1088.0794,799.5735)" d="M0 0C0 5.977-.322 9.74-.967 11.294-1.612 12.846-2.988 13.623-5.098 13.623-7.207 13.623-8.613 12.846-9.316 11.294-10.02 9.74-10.371 5.977-10.371 0V-52.646C-10.371-58.154-10.02-61.743-9.316-63.413-8.613-65.083-7.237-65.918-5.186-65.918-3.076-65.918-1.685-65.157-1.011-63.633-.338-62.109 0-58.829 0-53.789ZM35.508-8.789V-37.354C35.508-47.843 34.98-55.533 33.926-60.425 32.871-65.317 30.615-69.888 27.158-74.136 23.7-78.385 19.262-81.519 13.843-83.54 8.423-85.562 2.197-86.572-4.834-86.572-12.687-86.572-19.336-85.707-24.785-83.979-30.234-82.252-34.468-79.644-37.485-76.157-40.504-72.672-42.657-68.453-43.945-63.501-45.234-58.55-45.879-51.123-45.879-41.221V-11.338C-45.879-.498-44.707 7.968-42.363 14.063-40.021 20.156-35.802 25.049-29.707 28.74-23.613 32.432-15.82 34.277-6.328 34.277 1.64 34.277 8.481 33.091 14.194 30.718 19.907 28.345 24.315 25.253 27.422 21.445 30.527 17.636 32.651 13.711 33.794 9.668 34.937 5.625 35.508-.527 35.508-8.789" fill="#e9472e"/>
<path transform="matrix(1,0,0,-1,1088.0794,799.5735)" stroke-width="1" stroke-linecap="butt" stroke-miterlimit="4" stroke-linejoin="miter" fill="none" stroke="#d8642a" d="M0 0C0 5.977-.322 9.74-.967 11.294-1.612 12.846-2.988 13.623-5.098 13.623-7.207 13.623-8.613 12.846-9.316 11.294-10.02 9.74-10.371 5.977-10.371 0V-52.646C-10.371-58.154-10.02-61.743-9.316-63.413-8.613-65.083-7.237-65.918-5.186-65.918-3.076-65.918-1.685-65.157-1.011-63.633-.338-62.109 0-58.829 0-53.789V0ZM35.508-8.789V-37.354C35.508-47.843 34.98-55.533 33.926-60.425 32.871-65.317 30.615-69.888 27.158-74.136 23.7-78.385 19.262-81.519 13.843-83.54 8.423-85.562 2.197-86.572-4.834-86.572-12.687-86.572-19.336-85.707-24.785-83.979-30.234-82.252-34.468-79.644-37.485-76.157-40.504-72.672-42.657-68.453-43.945-63.501-45.234-58.55-45.879-51.123-45.879-41.221V-11.338C-45.879-.498-44.707 7.968-42.363 14.063-40.021 20.156-35.802 25.049-29.707 28.74-23.613 32.432-15.82 34.277-6.328 34.277 1.64 34.277 8.481 33.091 14.194 30.718 19.907 28.345 24.315 25.253 27.422 21.445 30.527 17.636 32.651 13.711 33.794 9.668 34.937 5.625 35.508-.527 35.508-8.789Z"/>
<path transform="matrix(1,0,0,-1,1170.345,767.4055)" d="M0 0-.615-11.096C2.139-6.695 5.419-3.394 9.229-1.192 13.037 1.008 17.372 2.109 22.236 2.109 31.729 2.109 39.199-2.293 44.648-11.096 47.637-6.695 51.006-3.394 54.756-1.192 58.505 1.008 62.666 2.109 67.236 2.109 73.271 2.109 78.267 .644 82.222-2.285 86.177-5.216 88.711-8.804 89.824-13.052 90.937-17.301 91.494-24.2 91.494-33.75V-116.631H57.041V-40.605C57.041-30.645 56.703-24.478 56.03-22.104 55.356-19.731 53.789-18.545 51.328-18.545 48.809-18.545 47.183-19.718 46.45-22.061 45.717-24.404 45.352-30.586 45.352-40.605V-116.631H10.898V-42.539C10.898-31.113 10.62-24.258 10.063-21.973 9.506-19.688 7.968-18.545 5.449-18.545 3.867-18.545 2.519-19.146 1.406-20.347 .293-21.549-.322-23.014-.439-24.741-.558-26.471-.615-30.146-.615-35.771V-116.631H-35.068V0Z" fill="#e9472e"/>
<path transform="matrix(1,0,0,-1,1170.345,767.4055)" stroke-width="1" stroke-linecap="butt" stroke-miterlimit="4" stroke-linejoin="miter" fill="none" stroke="#d8642a" d="M0 0-.615-11.096C2.139-6.695 5.419-3.394 9.229-1.192 13.037 1.008 17.372 2.109 22.236 2.109 31.729 2.109 39.199-2.293 44.648-11.096 47.637-6.695 51.006-3.394 54.756-1.192 58.505 1.008 62.666 2.109 67.236 2.109 73.271 2.109 78.267 .644 82.222-2.285 86.177-5.216 88.711-8.804 89.824-13.052 90.937-17.301 91.494-24.2 91.494-33.75V-116.631H57.041V-40.605C57.041-30.645 56.703-24.478 56.03-22.104 55.356-19.731 53.789-18.545 51.328-18.545 48.809-18.545 47.183-19.718 46.45-22.061 45.717-24.404 45.352-30.586 45.352-40.605V-116.631H10.898V-42.539C10.898-31.113 10.62-24.258 10.063-21.973 9.506-19.688 7.968-18.545 5.449-18.545 3.867-18.545 2.519-19.146 1.406-20.347 .293-21.549-.322-23.014-.439-24.741-.558-26.471-.615-30.146-.615-35.771V-116.631H-35.068V0H0Z"/>
<path transform="matrix(1,0,0,-1,-11.889313,943.95046)" d="M0 0V-33.797C.984-33.852 1.832-33.879 2.543-33.879 5.714-33.879 7.916-33.1 9.146-31.541 10.377-29.982 10.992-26.742 10.992-21.82V-10.91C10.992-6.371 10.281-3.418 8.859-2.051 7.437-.685 4.483 0 0 0M-34.535 22.723H.246C9.651 22.723 16.884 21.984 21.943 20.508 27.001 19.031 30.803 16.898 33.346 14.109 35.889 11.32 37.611 7.943 38.514 3.979 39.416 .013 39.867-6.125 39.867-14.438V-26.004C39.867-34.481 38.992-40.66 37.242-44.543 35.491-48.427 32.279-51.406 27.604-53.484 22.928-55.563 16.816-56.602 9.27-56.602H0V-110.086H-34.535Z" fill="#313896"/>
<path transform="matrix(1,0,0,-1,78.75519,975.20437)" d="M0 0C0 5.578-.301 9.092-.902 10.541-1.505 11.989-2.789 12.715-4.758 12.715-6.727 12.715-8.039 11.989-8.695 10.541-9.352 9.092-9.68 5.578-9.68 0V-49.137C-9.68-54.277-9.352-57.627-8.695-59.186-8.039-60.744-6.755-61.523-4.84-61.523-2.871-61.523-1.573-60.813-.943-59.391-.315-57.969 0-54.907 0-50.203ZM33.141-8.203V-34.863C33.141-44.653 32.648-51.831 31.664-56.396 30.68-60.963 28.574-65.229 25.348-69.193 22.12-73.159 17.978-76.084 12.92-77.971 7.861-79.857 2.051-80.801-4.512-80.801-11.841-80.801-18.047-79.993-23.133-78.381-28.219-76.769-32.17-74.334-34.986-71.08-37.804-67.827-39.813-63.89-41.016-59.268-42.219-54.646-42.82-47.715-42.82-38.473V-10.582C-42.82-.465-41.727 7.437-39.539 13.125-37.353 18.813-33.415 23.379-27.727 26.824-22.04 30.27-14.766 31.992-5.906 31.992 1.53 31.992 7.916 30.885 13.248 28.67 18.58 26.455 22.694 23.57 25.594 20.016 28.492 16.46 30.475 12.797 31.541 9.023 32.607 5.25 33.141-.492 33.141-8.203" fill="#313896"/>
<path transform="matrix(1,0,0,-1,229.93878,945.1809)" d="M0 0-13.228-108.855H-49.198C-51.157-95.557-53.446-78.029-56.068-56.273-56.967-65.846-58.208-75.498-59.792-85.231L-63.431-108.855H-99.483L-113.531 0H-84.968C-84.749-2.843-82.334-23.624-77.725-62.344-77.36-58.36-74.879-37.578-70.28 0H-42.841L-36.135-62.344C-35.073-44.14-32.54-23.358-28.535 0Z" fill="#313896"/>
<path transform="matrix(1,0,0,-1,277.10676,983.8176)" d="M0 0V7.957C0 13.589-.301 17.227-.902 18.867-1.505 20.508-2.735 21.328-4.594 21.328-6.891 21.328-8.313 20.631-8.859 19.236-9.407 17.842-9.68 14.081-9.68 7.957V0ZM33.223-17.719H-9.68V-41.262C-9.68-46.184-9.325-49.355-8.613-50.777-7.903-52.2-6.536-52.91-4.512-52.91-1.997-52.91-.315-51.967 .533-50.08 1.38-48.193 1.805-44.543 1.805-39.129V-24.773H33.223V-32.813C33.223-39.539 32.798-44.707 31.951-48.316 31.103-51.926 29.121-55.781 26.004-59.883 22.887-63.984 18.935-67.061 14.15-69.111 9.364-71.162 3.363-72.188-3.855-72.188-10.856-72.188-17.036-71.175-22.395-69.152-27.755-67.13-31.924-64.354-34.904-60.826-37.886-57.299-39.949-53.416-41.098-49.178-42.246-44.94-42.82-38.773-42.82-30.68V1.066C-42.82 10.582-41.536 18.088-38.965 23.584-36.395 29.08-32.185 33.291-26.332 36.217-20.481 39.142-13.754 40.605-6.152 40.605 3.144 40.605 10.814 38.842 16.857 35.314 22.899 31.787 27.138 27.111 29.572 21.287 32.005 15.463 33.223 7.272 33.223-3.281Z" fill="#313896"/>
<path transform="matrix(1,0,0,-1,354.29817,945.1809)" d="M0 0-1.313-14.314C3.499-4.063 10.472 1.365 19.605 1.969V-36.34C13.535-36.34 9.077-37.16 6.234-38.801 3.39-40.441 1.641-42.726 .984-45.65 .328-48.576 0-55.317 0-65.871V-108.855H-33.141V0Z" fill="#313896"/>
<path transform="matrix(1,0,0,-1,454.1302,976.1067)" d="M0 0C0 5.632-.356 9.311-1.066 11.033-1.778 12.756-3.172 13.617-5.25 13.617-7.274 13.617-8.586 12.865-9.188 11.361-9.79 9.856-10.09 6.07-10.09 0V-46.922C-10.09-52.774-9.749-56.52-9.064-58.16-8.381-59.801-7.028-60.621-5.004-60.621-2.926-60.621-1.573-59.773-.943-58.078-.315-56.384 0-52.309 0-45.855ZM-10.09 54.879V23.44C-7.356 26.619-4.307 28.989-.943 30.552 2.42 32.112 6.07 32.895 10.008 32.895 14.546 32.895 18.484 32.184 21.82 30.762 25.155 29.339 27.698 27.344 29.449 24.773 31.199 22.202 32.251 19.688 32.607 17.227 32.962 14.766 33.141 9.516 33.141 1.477V-47.578C33.141-55.563 32.607-61.511 31.541-65.42 30.475-69.33 27.973-72.721 24.035-75.592 20.098-78.463 15.422-79.898 10.008-79.898 6.124-79.898 2.502-79.049-.861-77.351-4.225-75.652-7.301-73.104-10.09-69.706L-12.223-77.93H-43.23V54.879Z" fill="#313896"/>
<path transform="matrix(1,0,0,-1,567.5589,945.1809)" d="M0 0-9.47-78.753C-10.968-91.22-12.223-99.723-13.234-104.262-14.246-108.802-15.928-112.547-18.279-115.5-20.63-118.453-23.896-120.627-28.08-122.021-32.264-123.416-38.948-124.113-48.135-124.113H-68.229V-106.723C-63.081-106.723-59.766-106.464-58.287-105.943-56.808-105.424-56.068-104.262-56.068-102.457-56.068-101.583-56.753-97.781-58.122-91.055L-76.269 0H-46.184L-35.294-73.5-29.982 0Z" fill="#313896"/>
<path transform="matrix(1,0,0,-1,646.32937,921.2278)" d="M0 0V-88.758C0-102.047-.137-110.592-.411-114.393-.686-118.194-1.936-121.625-4.158-124.688-6.382-127.751-9.393-129.869-13.19-131.045-16.989-132.222-22.714-132.809-30.363-132.809H-47.66V-109.594C-45.582-109.758-44.079-109.84-43.148-109.84-40.688-109.84-38.747-109.238-37.324-108.035-35.902-106.833-35.082-105.356-34.863-103.605-34.646-101.855-34.535-98.466-34.535-93.434V0Z" fill="#313896"/>
<path transform="matrix(1,0,0,-1,-370.31513,2198.6868)" d="M1063.156 1144.65H1029.031V1253.505H1063.156ZM1063.156 1260.15H1029.031V1277.459H1063.156Z" fill="#313896"/>
<path transform="matrix(1,0,0,-1,744.84896,1002.27468)" d="M0 0C-5.305-3.884-8.381-7.137-9.229-9.762-10.077-12.387-10.5-16.16-10.5-21.082-10.5-26.715-10.131-30.352-9.393-31.992-8.654-33.633-7.191-34.453-5.004-34.453-2.926-34.453-1.572-33.811-.943-32.525-.315-31.241 0-27.863 0-22.395ZM-10.5 14.93H-41.59V22.23C-41.59 30.651-40.619 37.146-38.678 41.713-36.737 46.278-32.841 50.313-26.988 53.813-21.137 57.312-13.535 59.063-4.184 59.063 7.026 59.063 15.476 57.08 21.164 53.115 26.852 49.149 30.27 44.283 31.418 38.514 32.566 32.743 33.141 20.863 33.141 2.871V-51.762H.902V-42.062C-1.121-45.951-3.732-48.869-6.932-50.813-10.131-52.758-13.945-53.73-18.375-53.73-24.172-53.73-29.49-52.103-34.33-48.85-39.17-45.597-41.59-38.473-41.59-27.48V-18.539C-41.59-10.391-40.306-4.84-37.734-1.887-35.164 1.066-28.793 4.512-18.621 8.449-7.739 12.715-1.915 15.586-1.148 17.063-.383 18.539 0 21.546 0 26.086 0 31.773-.424 35.479-1.271 37.201-2.12 38.924-3.527 39.785-5.496 39.785-7.739 39.785-9.134 39.06-9.68 37.611-10.227 36.162-10.5 32.402-10.5 26.332Z" fill="#313896"/>
<path transform="matrix(1,0,0,-1,824.91146,921.2278)" d="M0 0V-106.23H21V-132.809H-34.535V0Z" fill="#313896"/>
<path transform="matrix(1,0,0,-1,929.17318,945.1809)" d="M0 0V-108.855H-33.715L-33.141-99.812C-35.438-103.482-38.268-106.235-41.631-108.071-44.994-109.906-48.863-110.824-53.238-110.824-58.215-110.824-62.344-109.949-65.625-108.199-68.906-106.449-71.326-104.126-72.885-101.227-74.443-98.328-75.415-95.308-75.797-92.162-76.18-89.018-76.371-82.77-76.371-73.418V0H-43.23V-74.074C-43.23-82.552-42.972-87.582-42.451-89.168-41.932-90.755-40.523-91.547-38.227-91.547-35.766-91.547-34.303-90.727-33.838-89.086-33.374-87.445-33.141-82.168-33.141-73.254V0Z" fill="#313896"/>
<path transform="matrix(1,0,0,-1,1014.3216,986.27859)" d="M0 0H-31.254V12.551C-31.254 16.926-31.61 19.893-32.32 21.451-33.031 23.01-34.344 23.789-36.258 23.789-38.173 23.789-39.457 23.104-40.113 21.738-40.77 20.371-41.098 17.309-41.098 12.551V-38.801C-41.098-42.685-40.605-45.597-39.621-47.537-38.637-49.479-37.188-50.449-35.273-50.449-33.031-50.449-31.514-49.438-30.721-47.414-29.929-45.392-29.531-41.563-29.531-35.93V-22.969H0C-.055-31.664-.369-38.186-.943-42.533-1.518-46.881-3.351-51.339-6.439-55.904-9.529-60.471-13.563-63.916-18.539-66.24-23.516-68.564-29.668-69.727-36.996-69.727-46.348-69.727-53.759-68.127-59.227-64.928-64.695-61.729-68.565-57.245-70.834-51.475-73.104-45.705-74.238-37.517-74.238-26.906V4.02C-74.238 13.261-73.309 20.233-71.449 24.938-69.591 29.641-65.625 33.838-59.555 37.529-53.484 41.221-46.102 43.066-37.406 43.066-28.766 43.066-21.383 41.233-15.258 37.57-9.134 33.906-5.059 29.285-3.035 23.707-1.013 18.129 0 10.226 0 0" fill="#313896"/>
<path transform="matrix(1,0,0,-1,1095.5325,945.1809)" d="M0 0-13.453-43.354 4.02-108.855H-27.85L-38.186-61.412-38.227-108.855H-71.367V23.953H-38.227L-38.186-31.799-27.85 0Z" fill="#313896"/>
<path transform="matrix(1,0,0,-1,1178.6301,961.4231)" d="M0 0H-32.074V9.844C-32.074 14.438-32.484 17.362-33.305 18.621-34.125 19.879-35.492 20.508-37.406 20.508-39.485 20.508-41.057 19.659-42.123 17.962-43.189 16.266-43.723 13.694-43.723 10.246-43.723 5.814-43.124 2.475-41.925 .232-40.779-2.013-37.526-4.72-32.165-7.888-16.792-17.013-7.109-24.5-3.117-30.352 .874-36.204 2.871-45.638 2.871-58.652 2.871-68.114 1.764-75.087-.451-79.57-2.666-84.055-6.945-87.814-13.289-90.85-19.634-93.885-27.017-95.402-35.438-95.402-44.68-95.402-52.569-93.651-59.104-90.152-65.639-86.653-69.919-82.195-71.941-76.781-73.965-71.367-74.977-63.685-74.977-53.73V-45.035H-42.902V-61.195C-42.902-66.172-42.451-69.371-41.549-70.793-40.646-72.216-39.047-72.926-36.75-72.926-34.453-72.926-32.744-72.023-31.623-70.219-30.503-68.414-29.941-65.735-29.941-62.18-29.941-54.359-31.008-49.247-33.141-46.84-35.328-44.434-40.716-40.414-49.301-34.781-57.887-29.094-63.574-24.966-66.363-22.395-69.152-19.824-71.463-16.271-73.295-11.73-75.128-7.191-76.043-1.395-76.043 5.66-76.043 15.832-74.744 23.269-72.146 27.973-69.55 32.676-65.352 36.353-59.555 39.006-53.759 41.658-46.758 42.984-38.555 42.984-29.586 42.984-21.943 41.535-15.627 38.637-9.311 35.737-5.127 32.087-3.076 27.686-1.025 23.283 0 15.804 0 5.25Z" fill="#313896"/>
<path transform="matrix(1,0,0,-1,1231.4583,1002.27468)" d="M0 0C-5.305-3.884-8.381-7.137-9.229-9.762-10.077-12.387-10.5-16.16-10.5-21.082-10.5-26.715-10.131-30.352-9.393-31.992-8.654-33.633-7.191-34.453-5.004-34.453-2.926-34.453-1.572-33.811-.943-32.525-.315-31.241 0-27.863 0-22.395ZM-10.5 14.93H-41.59V22.23C-41.59 30.651-40.619 37.146-38.678 41.713-36.737 46.278-32.841 50.313-26.988 53.813-21.137 57.312-13.535 59.063-4.184 59.063 7.026 59.063 15.476 57.08 21.164 53.115 26.852 49.149 30.27 44.283 31.418 38.514 32.566 32.743 33.141 20.863 33.141 2.871V-51.762H.902V-42.062C-1.121-45.951-3.732-48.869-6.932-50.813-10.131-52.758-13.945-53.73-18.375-53.73-24.172-53.73-29.49-52.103-34.33-48.85-39.17-45.597-41.59-38.473-41.59-27.48V-18.539C-41.59-10.391-40.306-4.84-37.734-1.887-35.164 1.066-28.793 4.512-18.621 8.449-7.739 12.715-1.915 15.586-1.148 17.063-.383 18.539 0 21.546 0 26.086 0 31.773-.424 35.479-1.271 37.201-2.12 38.924-3.527 39.785-5.496 39.785-7.739 39.785-9.134 39.06-9.68 37.611-10.227 36.162-10.5 32.402-10.5 26.332Z" fill="#313896"/>
</g>
</g>
</g>
</svg>
